<svg xmlns="http://www.w3.org/2000/svg" version="1.1" xmlns:xlink="http://www.w3.org/1999/xlink" xmlns:svgjs="http://svgjs.dev/svgjs" width="128" height="128"><svg width="128" height="128" xmlns="http://www.w3.org/2000/svg" version="1.1">
  <g transform="translate(0, 0)">
    <g id="SvgjsG1019">
      <animateTransform attributeType="xml" attributeName="transform" type="rotate" from="0 64 64" to="360 64 64" begin="0" dur="5s" repeatCount="indefinite"></animateTransform>
      <path class="cls-2" d="m59.74966,59.07625c2.32632,-1.75786 4.54769,-2.20388 7.13638,-0.9795c0.51599,0.24488 1.04947,0.67341 1.52173,0.05247c0.29735,-0.3848 0,-0.80459 -0.20989,-1.1894c-1.53047,-2.74611 -6.78655,-4.94999 -9.7513,-3.97048c-5.35228,1.7666 -9.63761,5.55343 -8.23832,12.92594c0.7871,4.11041 3.40202,7.04018 6.6029,9.04291c2.99973,1.8803 6.77781,2.39628 10.38098,1.65291c2.1689,-0.44602 4.5302,-0.3848 6.41924,-2.06395c6.72534,-6.0082 8.91173,-13.32823 6.11315,-21.8639c-2.62367,-8.00219 -8.97294,-12.98716 -17.01886,-13.72178c-12.7073,-1.15441 -22.49358,8.64936 -24.8199,20.04482c-1.46051,7.15387 0.51599,13.61684 4.74884,19.60754c3.26209,4.60891 7.31129,8.3695 12.45368,10.11861c11.94643,4.07543 26.92758,-0.52473 33.06696,-12.84723c2.57994,-5.17737 3.33206,-10.64335 2.49248,-16.41542c-0.79585,-5.43974 -4.07543,-9.52391 -6.96147,-13.84422c-0.57721,-0.86581 -1.63542,-1.12818 -2.4575,-1.67915c-0.18366,-0.12244 -0.60344,-0.10495 -0.76961,0.02624c-0.35857,0.2886 -0.15742,0.67341 0.08746,0.93577c0.92703,0.99699 1.72288,2.0727 2.33506,3.31457c3.22711,6.53293 2.99973,13.12708 1.04947,20.02733c-1.72288,6.11315 -5.59716,10.27603 -11.0194,12.59361c-5.42225,2.30883 -11.22055,3.03471 -16.9314,-0.12244c-6.73408,-3.72561 -10.68707,-9.04291 -10.94069,-16.16179c0.13118,-6.83903 2.29134,-11.86772 7.60864,-15.21727c8.12462,-5.11615 20.10604,-1.50424 20.66576,11.23804c0.2886,6.5067 -5.00246,10.65209 -11.77152,8.22957c-3.2446,-1.16316 -5.92949,-6.6029 -1.77535,-9.73381l-0.01749,0l-0.00003,0.00001z" id="SvgjsPath1018" fill="#ed713a"></path>
      <path class="cls-2" d="m64.00001,0l-12.91719,33.18065l25.83438,0l-12.91719,-33.18065zm2.14266,17.35994l4.48647,11.5179l-4.48647,0l0,-11.5179zm-4.29407,0l0,11.52665l-4.48647,0l4.48647,-11.52665z" id="SvgjsPath1017" fill="#ed713a"></path>
      <path class="cls-2" d="m64.00001,128.00001l12.91719,-33.18065l-25.83438,0l12.91719,33.18065zm-2.15141,-17.35994l-4.48647,-11.5179l4.48647,0l0,11.5179zm4.29407,0l0,-11.5179l4.48647,0l-4.48647,11.5179z" id="SvgjsPath1016" fill="#ed713a"></path>
      <path class="cls-2" d="m94.81936,76.9172l33.18065,-12.91719l-33.18065,-12.91719l0,25.83438zm4.29407,-10.76578l11.5179,0l-11.5179,4.48647l0,-4.48647zm11.5179,-4.30282l-11.5179,0l0,-4.48647l11.5179,4.48647z" id="SvgjsPath1015" fill="#ed713a"></path>
      <path class="cls-2" d="m33.18065,51.08281l-33.18065,12.91719l33.18065,12.91719l0,-25.83438zm-4.30282,10.76578l-11.5179,0l11.5179,-4.48647l0,4.48647zm-11.5179,4.30282l11.5179,0l0,4.48647l-11.5179,-4.48647z" id="SvgjsPath1014" fill="#ed713a"></path>
      <path class="cls-2" d="m103.08391,25.12599l-21.40913,9.41022l11.99891,11.99891l9.41022,-21.40913zm-9.0604,7.06641l-5.35228,5.35228l-2.08144,-2.08144l7.43373,-3.27084l-0.00001,0zm-3.34955,7.34627l5.35228,-5.35228l-3.27084,7.43373l-2.08144,-2.08144l0,-0.00001z" id="SvgjsPath1013" fill="#ed713a"></path>
      <path class="cls-2" d="m26.16672,102.66412l21.40913,-9.41022l-11.99891,-11.99891l-9.41022,21.40913zm9.0604,-7.06641l5.35228,-5.35228l2.08144,2.08144l-7.43373,3.27084l0.00001,0zm3.35829,-7.34627l-5.35228,5.35228l3.27084,-7.43373l2.08144,2.08144l0,0.00001z" id="SvgjsPath1012" fill="#ed713a"></path>
      <path class="cls-2" d="m81.98088,92.93906l21.40913,9.41022l-9.41022,-21.40913l-11.99891,11.99891zm14.35146,0.34982l-5.35228,-5.35228l2.08144,-2.08144l3.27084,7.43373l0,-0.00001zm-7.34627,-3.34955l5.35228,5.35228l-7.43373,-3.27084l2.08144,-2.08144l0.00001,0z" id="SvgjsPath1011" fill="#ed713a"></path>
      <path class="cls-2" d="m47.26975,34.84231l-21.40913,-9.41022l9.41022,21.40913l11.99891,-11.99891zm-14.34272,-0.34108l5.35228,5.35228l-2.08144,2.08144l-3.27084,-7.43373l0,0.00001zm7.34627,3.34955l-5.35228,-5.35228l7.43373,3.27084l-2.08144,2.08144l-0.00001,0z" id="SvgjsPath1010" fill="#ed713a"></path>
    </g>
  </g>
</svg><style>@media (prefers-color-scheme: light) { :root { filter: none; } }
@media (prefers-color-scheme: dark) { :root { filter: none; } }
</style></svg>