<svg width="37" height="40" viewBox="0 0 37 40" fill="none" xmlns="http://www.w3.org/2000/svg">
<path d="M3.47363 7.46762L10.5853 2.94482L16.0415 1.79431L24.35 4.07332L30.3388 8.08984L32.4721 12.0799L34.0004 19.8576L10.1134 38.2056L3.47363 7.46762Z" fill="url(#paint0_linear_8238_20480)"/>
<path style="mix-blend-mode:screen" opacity="0.58" d="M16.0411 1.79431L24.1203 4.01022L30.3384 8.08984L32.4718 12.0799L27.313 14.2474L19.003 12.5407L11.3321 7.11689L10.585 2.94482L16.0411 1.79431Z" fill="url(#paint1_linear_8238_20480)"/>
<path style="mix-blend-mode:multiply" d="M10.1133 38.2056L27.6609 22.1484L34.0003 19.8576L10.1133 38.2056Z" fill="url(#paint2_radial_8238_20480)"/>
<path style="mix-blend-mode:screen" opacity="0.7" d="M11.3327 7.11688L19.0036 12.5407L14.8197 20.4065L4.43848 11.9302L11.3327 7.11688Z" fill="url(#paint3_linear_8238_20480)"/>
<path style="mix-blend-mode:screen" opacity="0.3" d="M27.3132 14.2474L19.0032 12.5407L14.8193 20.4064L27.6609 22.1484L27.3132 14.2474Z" fill="url(#paint4_linear_8238_20480)"/>
<path style="mix-blend-mode:multiply" opacity="0.43" d="M10.1133 38.2057L14.8194 20.4065L27.6609 22.1484L10.1133 38.2057Z" fill="url(#paint5_radial_8238_20480)"/>
<path style="mix-blend-mode:screen" d="M28.75 13.6179C29.1731 13.4667 29.4927 13.3317 29.4927 13.3317C29.4927 13.3317 29.1391 13.4403 28.75 13.6179Z" fill="url(#paint6_radial_8238_20480)"/>
<path style="mix-blend-mode:screen" d="M4.08179 10.2808L4.05664 10.1634C4.05664 10.1634 4.06108 10.2133 4.08179 10.2808Z" fill="url(#paint7_radial_8238_20480)"/>
<path style="mix-blend-mode:screen" d="M27.7526 14.4059C27.8458 14.0919 28.3192 13.813 28.7497 13.6179C28.297 13.7793 27.7259 13.9627 27.2939 14.0244C26.4566 14.1447 20.1127 12.6625 19.0564 12.3191C18.0016 11.9757 11.7243 7.21228 11.495 6.84247C11.2642 6.47413 11.1015 3.45257 11.2701 3.1532C11.4388 2.85384 14.9169 2.03204 14.9169 2.03204L10.5866 2.94629L10.4017 3.06369C10.4017 3.06369 10.7035 5.59217 10.4579 6.62675C10.2123 7.66133 5.35385 10.6726 4.72952 10.7093C4.28569 10.7342 4.13331 10.451 4.08301 10.2837L4.43955 11.9332L6.746 22.6121C6.746 22.6121 4.94848 13.16 5.27987 13.1527C5.61127 13.1453 13.9094 20.0543 14.2734 20.6838C14.6373 21.3148 12.1016 30.6936 12.1016 30.6936C12.1016 30.6936 14.9451 21.6641 15.343 21.2239C15.741 20.7836 25.168 21.8109 25.168 21.8109C25.168 21.8109 16.2973 20.088 15.6848 19.9941C15.0723 19.8987 18.6525 13.2055 19.2695 12.9208C19.8864 12.6361 26.5276 14.3252 26.9152 14.3883C27.3028 14.4529 27.504 18.5384 27.504 18.5384C27.504 18.5384 27.575 15.0046 27.754 14.4059H27.7526ZM14.9288 19.526C14.2053 19.5759 4.97067 12.5994 5.30798 11.9479C5.6453 11.2963 10.1458 7.789 10.7494 7.61437C11.2331 7.47496 18.1066 11.6353 18.1895 12.6258C18.2723 13.6149 15.6522 19.4775 14.9288 19.5274V19.526Z" fill="url(#paint8_radial_8238_20480)"/>
<path d="M14.3709 19.8562C14.9553 19.4981 14.8591 20.0675 15.5323 20.3214C16.2054 20.5752 16.7794 20.7337 15.9628 20.9803C15.1461 21.2268 14.689 21.4014 14.3813 23.0113C14.0721 24.6211 14.4789 21.2635 14.4493 20.8687C14.4212 20.474 14.1431 19.997 14.3724 19.8562H14.3709Z" fill="white"/>
<path d="M10.914 6.40368C10.7972 6.12192 10.3829 7.0978 10.7054 7.2827C11.0279 7.4676 12.7086 8.26739 12.4955 8.00471C12.2825 7.74203 11.1818 7.04937 10.914 6.40368Z" fill="white"/>
<path style="mix-blend-mode:screen" opacity="0.76" d="M17.5456 13.2715C18.1788 12.89 15.5173 19.2574 14.8575 19.1385C14.1976 19.0197 6.80933 13.5973 6.99869 13.1086C7.18806 12.6199 11.8379 16.7172 17.5456 13.2715Z" fill="url(#paint9_radial_8238_20480)"/>
<path style="mix-blend-mode:multiply" opacity="0.12" d="M7.66606 10.6814C7.07725 10.3204 10.2063 8.10745 10.9859 8.11919C11.7656 8.13093 15.1816 9.95061 15.0573 10.473C14.9331 10.9955 7.92201 10.8384 7.66606 10.6814Z" fill="url(#paint10_radial_8238_20480)"/>
<path style="mix-blend-mode:multiply" opacity="0.31" d="M10.1608 4.73662C10.1608 4.73662 10.325 6.05443 10.0114 6.80872C9.69626 7.56301 5.71509 10.2881 5.37926 10.1517C5.04343 10.0152 9.80426 3.20016 10.1608 4.73662Z" fill="url(#paint11_radial_8238_20480)"/>
<path style="mix-blend-mode:multiply" opacity="0.8" d="M7.25393 24.9616C7.25393 24.9616 9.82076 35.0168 10.3622 34.173C10.9052 33.3292 12.9157 27.7366 12.9157 27.7366C12.9157 27.7366 10.8697 35.0931 12.0725 35.2017C13.2753 35.3103 26.3712 25.01 27.4808 24.2498C28.5904 23.4897 27.6598 22.1469 27.6598 22.1469C27.6598 22.1469 32.2313 20.5092 32.4517 18.961C32.6722 17.4128 32.8009 13.3684 31.8881 13.3009C30.9753 13.2334 28.4173 13.7808 28.4173 13.7808C28.4173 13.7808 31.1365 12.3412 31.4783 11.8305C31.82 11.3198 29.7828 8.00768 29.1023 7.63054C28.4218 7.2534 24.4643 4.61925 24.0278 4.37271C23.5914 4.12471 18.5879 2.49139 18.5879 2.49139L24.1195 4.00878L30.3376 8.0884L32.471 12.0785L33.9992 19.8547L10.1122 38.2027L7.25098 24.9586L7.25393 24.9616Z" fill="url(#paint12_radial_8238_20480)"/>
<path style="mix-blend-mode:screen" opacity="0.51" d="M11.8958 3.39684C12.6592 2.74821 15.7364 2.04381 15.9288 2.26834C16.1196 2.4914 28.1238 13.3083 27.5764 13.3449C27.0305 13.3816 19.7294 12.1078 19.1599 11.8804C18.5903 11.6529 12.0408 7.11252 12.0097 6.62238C11.9787 6.13224 11.6798 3.58027 11.8943 3.39684H11.8958Z" fill="url(#paint13_radial_8238_20480)"/>
<path style="mix-blend-mode:screen" opacity="0.62" d="M14.0618 2.64252C13.6861 2.78047 12.5395 3.29849 12.4566 3.64922C12.3664 4.02783 11.9862 6.13808 13.0159 7.05379C13.9642 7.89613 19.4278 11.738 19.3124 11.2449C19.197 10.7519 14.2527 2.57355 14.0633 2.64252H14.0618Z" fill="url(#paint14_radial_8238_20480)"/>
<path style="mix-blend-mode:multiply" opacity="0.3" d="M25.6416 5.84165C26.0351 6.08525 28.9585 7.7802 29.2677 8.17935C29.5769 8.57851 31.7798 11.038 31.0637 11.7351C30.3477 12.4321 24.9847 5.43368 25.6416 5.84165Z" fill="url(#paint15_linear_8238_20480)"/>
<path style="mix-blend-mode:multiply" opacity="0.43" d="M31.4153 12.8768C30.8191 13.1116 28.3706 13.9613 28.2508 14.4661C28.131 14.9709 27.5303 21.7038 28.1531 21.5233C32.9983 20.113 33.6108 12.0125 31.4153 12.8768Z" fill="url(#paint16_linear_8238_20480)"/>
<path style="mix-blend-mode:multiply" opacity="0.15" d="M16.0285 19.5641C15.9368 19.005 18.8173 13.4007 19.5008 13.1732C20.1843 12.9443 26.5399 14.2107 26.5725 14.8975C26.605 15.5843 21.7687 14.4338 20.3337 14.921C18.8986 15.4082 16.1365 20.2172 16.03 19.5641H16.0285Z" fill="url(#paint17_linear_8238_20480)"/>
<path style="mix-blend-mode:multiply" opacity="0.43" d="M15.84 21.9077C16.8386 21.2224 20.9441 21.7228 21.9841 22.0794C23.0242 22.4345 11.7819 37.3926 11.1162 37.0067C10.4489 36.6207 15.1698 22.3685 15.84 21.9092V21.9077Z" fill="url(#paint18_linear_8238_20480)"/>
<path style="mix-blend-mode:multiply" opacity="0.53" d="M16.1332 22.3084C17.0179 22.1029 19.1143 22.1 20.1691 22.3979C21.2225 22.6943 14.7189 29.5563 14.0235 29.2907C13.3282 29.0251 15.5385 22.4463 16.1332 22.3084Z" fill="url(#paint19_radial_8238_20480)"/>
<path style="mix-blend-mode:screen" opacity="0.22" d="M9.80985 18.1627C11.3011 18.3505 13.8709 20.8306 13.8709 20.8306C13.8901 22.4008 11.0245 35.2971 10.4652 34.9728C9.90601 34.6484 8.90739 18.0497 9.80985 18.1627Z" fill="url(#paint20_linear_8238_20480)"/>
<defs>
<linearGradient id="paint0_linear_8238_20480" x1="12.1411" y1="2.70633" x2="24.9426" y2="34.6146" gradientUnits="userSpaceOnUse">
<stop stopColor="#2BC4FF"/>
<stop offset="0.4" stopColor="#1C7BDA"/>
<stop offset="0.81" stopColor="#0F37B8"/>
<stop offset="1" stopColor="#0A1DAB"/>
</linearGradient>
<linearGradient id="paint1_linear_8238_20480" x1="10.7555" y1="3.33731" x2="47.699" y2="20.505" gradientUnits="userSpaceOnUse">
<stop stopColor="#2BC4FF"/>
<stop offset="0.4" stopColor="#1C7BDA"/>
<stop offset="0.81" stopColor="#0F37B8"/>
<stop offset="1" stopColor="#0A1DAB"/>
</linearGradient>
<radialGradient id="paint2_radial_8238_20480" cx="0" cy="0" r="1" gradientUnits="userSpaceOnUse" gradientTransform="translate(22.0539 29.0322) rotate(13.1368) scale(10.677 10.5997)">
<stop stopColor="#0020DD"/>
<stop offset="0.66" stopColor="#315CC3"/>
<stop offset="1" stopColor="#4777B8"/>
</radialGradient>
<linearGradient id="paint3_linear_8238_20480" x1="4.47606" y1="11.7567" x2="18.403" y2="15.0602" gradientUnits="userSpaceOnUse">
<stop stopColor="#2BC4FF"/>
<stop offset="0.4" stopColor="#1C7BDA"/>
<stop offset="0.81" stopColor="#0F37B8"/>
<stop offset="1" stopColor="#0A1DAB"/>
</linearGradient>
<linearGradient id="paint4_linear_8238_20480" x1="15.8351" y1="16.1068" x2="28.385" y2="19.0837" gradientUnits="userSpaceOnUse">
<stop stopColor="#2BC4FF"/>
<stop offset="0.4" stopColor="#1C7BDA"/>
<stop offset="0.81" stopColor="#0F37B8"/>
<stop offset="1" stopColor="#0A1DAB"/>
</linearGradient>
<radialGradient id="paint5_radial_8238_20480" cx="0" cy="0" r="1" gradientUnits="userSpaceOnUse" gradientTransform="translate(18.8852 30.1787) rotate(13.1368) scale(8.43664 8.37556)">
<stop stopColor="#0020DD"/>
<stop offset="0.66" stopColor="#315CC3"/>
<stop offset="1" stopColor="#4777B8"/>
</radialGradient>
<radialGradient id="paint6_radial_8238_20480" cx="0" cy="0" r="1" gradientUnits="userSpaceOnUse" gradientTransform="translate(29.1169 13.4748) rotate(13.1368) scale(0.280975 0.278942)">
<stop stopColor="#4B48E5"/>
<stop offset="0.09" stopColor="#4854E4"/>
<stop offset="0.51" stopColor="#3C8BE0"/>
<stop offset="0.83" stopColor="#34ADDE"/>
<stop offset="1" stopColor="#32BADE"/>
</radialGradient>
<radialGradient id="paint7_radial_8238_20480" cx="0" cy="0" r="1" gradientUnits="userSpaceOnUse" gradientTransform="translate(4.06581 10.2243) rotate(13.1364) scale(0.042887 0.0425754)">
<stop stopColor="#4B48E5"/>
<stop offset="0.09" stopColor="#4854E4"/>
<stop offset="0.51" stopColor="#3C8BE0"/>
<stop offset="0.83" stopColor="#34ADDE"/>
<stop offset="1" stopColor="#32BADE"/>
</radialGradient>
<radialGradient id="paint8_radial_8238_20480" cx="0" cy="0" r="1" gradientUnits="userSpaceOnUse" gradientTransform="translate(15.2677 16.775) rotate(13.1368) scale(13.4202 13.3231)">
<stop stopColor="#4B48E5"/>
<stop offset="0.09" stopColor="#4854E4"/>
<stop offset="0.51" stopColor="#3C8BE0"/>
<stop offset="0.83" stopColor="#34ADDE"/>
<stop offset="1" stopColor="#32BADE"/>
</radialGradient>
<radialGradient id="paint9_radial_8238_20480" cx="0" cy="0" r="1" gradientUnits="userSpaceOnUse" gradientTransform="translate(17.3907 13.6478) rotate(13.1368) scale(6.631 6.583)">
<stop stopColor="#0020DD"/>
<stop offset="0.66" stopColor="#315CC3"/>
<stop offset="1" stopColor="#4777B8"/>
</radialGradient>
<radialGradient id="paint10_radial_8238_20480" cx="0" cy="0" r="1" gradientUnits="userSpaceOnUse" gradientTransform="translate(15.1885 9.31067) rotate(13.1368) scale(3.41754 3.3928)">
<stop stopColor="#0020DD"/>
<stop offset="0.66" stopColor="#315CC3"/>
<stop offset="1" stopColor="#4777B8"/>
</radialGradient>
<radialGradient id="paint11_radial_8238_20480" cx="0" cy="0" r="1" gradientUnits="userSpaceOnUse" gradientTransform="translate(10.371 5.06258) rotate(13.1368) scale(6.81881 6.76945)">
<stop stopColor="#0020DD"/>
<stop offset="0.66" stopColor="#315CC3"/>
<stop offset="1" stopColor="#4777B8"/>
</radialGradient>
<radialGradient id="paint12_radial_8238_20480" cx="0" cy="0" r="1" gradientUnits="userSpaceOnUse" gradientTransform="translate(36.0622 9.11371) rotate(13.1368) scale(38.2969 38.0196)">
<stop stopColor="#0020DD"/>
<stop offset="0.66" stopColor="#315CC3"/>
<stop offset="1" stopColor="#4777B8"/>
</radialGradient>
<radialGradient id="paint13_radial_8238_20480" cx="0" cy="0" r="1" gradientUnits="userSpaceOnUse" gradientTransform="translate(19.9046 7.62539) rotate(13.1368) scale(6.94008 6.88983)">
<stop stopColor="#0020DD"/>
<stop offset="0.66" stopColor="#315CC3"/>
<stop offset="1" stopColor="#4777B8"/>
</radialGradient>
<radialGradient id="paint14_radial_8238_20480" cx="0" cy="0" r="1" gradientUnits="userSpaceOnUse" gradientTransform="translate(16.0315 6.82091) rotate(13.1368) scale(3.94104 3.91251)">
<stop stopColor="#0020DD"/>
<stop offset="0.66" stopColor="#315CC3"/>
<stop offset="1" stopColor="#4777B8"/>
</radialGradient>
<linearGradient id="paint15_linear_8238_20480" x1="25.0544" y1="8.05982" x2="31.633" y2="9.62026" gradientUnits="userSpaceOnUse">
<stop stopColor="#130AFF"/>
<stop offset="0.29" stopColor="#0C4FF1"/>
<stop offset="0.63" stopColor="#059AE3"/>
<stop offset="0.88" stopColor="#01C9DA"/>
<stop offset="1" stopColor="#00DBD7"/>
</linearGradient>
<linearGradient id="paint16_linear_8238_20480" x1="27.7293" y1="16.6502" x2="32.1035" y2="17.6878" gradientUnits="userSpaceOnUse">
<stop stopColor="#130AFF"/>
<stop offset="0.29" stopColor="#0C4FF1"/>
<stop offset="0.63" stopColor="#059AE3"/>
<stop offset="0.88" stopColor="#01C9DA"/>
<stop offset="1" stopColor="#00DBD7"/>
</linearGradient>
<linearGradient id="paint17_linear_8238_20480" x1="16.8489" y1="15.9996" x2="25.8088" y2="18.1249" gradientUnits="userSpaceOnUse">
<stop stopColor="#130AFF"/>
<stop offset="0.29" stopColor="#0C4FF1"/>
<stop offset="0.63" stopColor="#059AE3"/>
<stop offset="0.88" stopColor="#01C9DA"/>
<stop offset="1" stopColor="#00DBD7"/>
</linearGradient>
<linearGradient id="paint18_linear_8238_20480" x1="12.8625" y1="28.6767" x2="20.1188" y2="30.3978" gradientUnits="userSpaceOnUse">
<stop stopColor="#130AFF"/>
<stop offset="0.29" stopColor="#0C4FF1"/>
<stop offset="0.63" stopColor="#059AE3"/>
<stop offset="0.88" stopColor="#01C9DA"/>
<stop offset="1" stopColor="#00DBD7"/>
</linearGradient>
<radialGradient id="paint19_radial_8238_20480" cx="0" cy="0" r="1" gradientUnits="userSpaceOnUse" gradientTransform="translate(17.142 25.243) rotate(13.1368) scale(6.67241 2.98085)">
<stop stopColor="#0020DD"/>
<stop offset="0.66" stopColor="#315CC3"/>
<stop offset="1" stopColor="#4777B8"/>
</radialGradient>
<linearGradient id="paint20_linear_8238_20480" x1="12.2428" y1="17.4364" x2="8.89303" y2="34.7131" gradientUnits="userSpaceOnUse">
<stop stopColor="#4777B8"/>
<stop offset="0.34" stopColor="#315CC3"/>
<stop offset="1" stopColor="#0020DD"/>
</linearGradient>
</defs>
</svg>
