<svg width="11" height="10" viewBox="0 0 11 10" fill="none" xmlns="http://www.w3.org/2000/svg">
<path d="M10.8687 4.49885L8.60891 0.500994C8.4338 0.19087 8.10983 0 7.75961 0H3.24039C2.88986 0 2.5662 0.19087 2.39109 0.500994L0.131333 4.49885C-0.0437776 4.80897 -0.0437776 5.19071 0.131333 5.50084L2.39109 9.49901C2.5662 9.80913 2.89017 10 3.24039 10H7.75961C8.11014 10 8.4338 9.80913 8.60891 9.49901L10.8687 5.50084C11.0438 5.19071 11.0438 4.80897 10.8687 4.49885ZM8.053 4.55627L7.03477 5.50872C6.96528 5.57371 6.93408 5.6712 6.95292 5.76553L7.22871 7.14736C7.27473 7.37767 7.03384 7.55655 6.83371 7.44045L5.63234 6.74543C5.55019 6.69811 5.44981 6.69811 5.36797 6.74543L4.1666 7.44045C3.96616 7.55624 3.72558 7.37767 3.77159 7.14736L4.04739 5.76553C4.06622 5.6712 4.03534 5.57371 3.96554 5.50872L2.94731 4.55627C2.77745 4.39758 2.86948 4.10828 3.09833 4.08177L4.47018 3.92277C4.56376 3.91204 4.64498 3.85178 4.68421 3.76408L5.25617 2.48036C5.3516 2.26646 5.64932 2.26646 5.74444 2.48036L6.31641 3.76408C6.35532 3.85178 6.43655 3.91204 6.53043 3.92277L7.90229 4.08177C8.13114 4.10828 8.22286 4.39758 8.05331 4.55627H8.053Z" fill="white"/>
</svg>
